<svg width="18" height="18" viewBox="0 0 18 18" fill="none" xmlns="http://www.w3.org/2000/svg">
<path d="M15.535 6.09608L15.3501 6.52034C15.2148 6.83094 14.7852 6.83094 14.6498 6.52034L14.465 6.09608C14.1353 5.3396 13.5416 4.73731 12.8008 4.40781L12.231 4.15442C11.923 4.0174 11.923 3.56911 12.231 3.43209L12.7689 3.19286C13.5288 2.85488 14.1332 2.2303 14.4571 1.44812L14.647 0.989648C14.7794 0.670117 15.2206 0.670117 15.353 0.989648L15.5429 1.44812C15.8669 2.2303 16.4712 2.85488 17.2311 3.19286L17.7689 3.43209C18.077 3.56911 18.077 4.0174 17.7689 4.15442L17.1992 4.40781C16.4584 4.73731 15.8647 5.3396 15.535 6.09608ZM15 8.25C15.5239 8.25 16.0271 8.16045 16.4947 7.99583C16.4982 8.08013 16.5 8.16488 16.5 8.25C16.5 11.5637 13.8137 14.25 10.5 14.25V16.875C6.75 15.375 1.5 13.125 1.5 8.25C1.5 4.93629 4.18629 2.25 7.5 2.25H10.5C10.5851 2.25 10.6699 2.25178 10.7542 2.25529C10.5896 2.72296 10.5 3.22602 10.5 3.75C10.5 6.23528 12.5147 8.25 15 8.25Z" fill="url(#paint0_linear_3739_6944)"/>
<defs>
<linearGradient id="paint0_linear_3739_6944" x1="9.75" y1="0.75" x2="9.75" y2="16.875" gradientUnits="userSpaceOnUse">
<stop stop-color="#603915"/>
<stop offset="1" stop-color="#A8843D"/>
</linearGradient>
</defs>
</svg>
