<svg width="100%" height="100%" viewBox="0 0 1440 1024" preserveAspectRatio="xMidYMin slice" xmlns="http://www.w3.org/2000/svg">
  <defs>
    <linearGradient id="fade-overlay" x1="0%" y1="0%" x2="0%" y2="100%">
      <stop offset="0%" stop-color="white" stop-opacity="1" />    <stop offset="20%" stop-color="white" stop-opacity="0.8" />
      <stop offset="60%" stop-color="white" stop-opacity="0" />    </linearGradient>
  </defs>

  <g transform="translate(360, 100)" stroke="#E6E4DC" stroke-width="0.8" fill="none">
    
    <rect x="0" y="0" width="220" height="220" rx="36" />
    <rect x="220" y="0" width="440" height="220" rx="36" />
    
    <rect x="0" y="220" width="440" height="220" rx="36" />
    <rect x="440" y="220" width="220" height="220" rx="36" />
    <rect x="660" y="220" width="220" height="220" rx="36" />

    <rect x="0" y="440" width="220" height="220" rx="36" />
    <rect x="220" y="440" width="440" height="220" rx="36" />
    <rect x="660" y="440" width="220" height="220" rx="36" />

    <rect x="0" y="660" width="220" height="220" rx="36" />
    <rect x="220" y="660" width="220" height="220" rx="36" />
    <rect x="440" y="660" width="440" height="220" rx="36" />
  </g>

  <rect x="0" y="0" width="100%" height="100%" fill="url(#fade-overlay)" />
</svg>